<svg width="101" height="101" viewBox="0 0 101 101" fill="none" xmlns="http://www.w3.org/2000/svg">
<path d="M6.4733 0.482071C4.38343 1.1524 2.45129 2.84796 1.42607 4.91811L0.795166 6.21935V42.5949V78.9704L1.42607 80.2716C2.25413 81.9278 3.75253 83.4261 5.40865 84.2542L6.70988 84.8851L27.234 84.9443L47.758 84.9837L48.9213 86.8764C53.2981 93.9938 60.1395 98.6467 68.3018 100.066C70.4706 100.461 75.2023 100.441 77.5879 100.066C83.2266 99.1396 88.4513 96.4188 92.6902 92.1996C96.6333 88.2368 99.1372 83.6825 100.379 78.1818C100.872 75.9736 100.971 70.2758 100.557 67.7916C99.1964 59.5898 94.228 52.4527 86.9135 48.135L85.4742 47.2872L85.4348 26.7434L85.3756 6.21935L84.7447 4.91811C83.9167 3.26199 82.4183 1.7636 80.7622 0.935532L79.4609 0.304626L43.3811 0.265198C13.9258 0.245483 7.14363 0.284912 6.4733 0.482071ZM78.5146 6.31792C79.7567 7.06712 79.7567 7.10656 79.7567 15.19V22.4848H43.0854H6.41415V15.19C6.41415 7.10656 6.41415 7.06712 7.65624 6.31792C8.26743 5.92361 8.91805 5.92361 43.0854 5.92361C77.2528 5.92361 77.9034 5.92361 78.5146 6.31792ZM79.7567 36.7984V45.1973L79.1258 45.0791C73.8025 43.975 68.5778 44.251 63.8461 45.8677C59.7649 47.2478 56.3738 49.3968 53.1207 52.6302C46.1611 59.5701 43.5191 68.6788 45.5696 78.6155L45.6879 79.2661H26.9974C8.78004 79.2661 8.26743 79.2464 7.65624 78.8718C6.37472 78.1029 6.41415 78.5761 6.41415 65.0708V52.847H8.26743C9.84469 52.847 10.1996 52.7879 10.7713 52.3936C12.6246 51.1515 12.5063 48.4702 10.5347 47.4844C10.0418 47.2281 9.39122 47.1295 8.14913 47.1295H6.41415V44.4679V41.8062H12.2894C17.4747 41.8062 18.2239 41.7668 18.8351 41.4514C20.7869 40.4853 20.9841 37.5871 19.1702 36.483C18.5788 36.1084 18.145 36.0887 12.4866 36.0887H6.41415V32.2441V28.3995H43.0854H79.7567V36.7984ZM77.0359 50.56C81.4325 51.4078 85.4151 53.5371 88.6287 56.7705C94.504 62.6852 96.5939 71.2024 94.1097 79.069C93.0253 82.4601 91.4875 85.0626 88.9836 87.665C85.4348 91.3519 81.4128 93.5206 76.5036 94.3881C74.1377 94.8021 69.8594 94.6444 67.6512 94.0726C55.5063 90.8787 48.2312 78.7141 51.3463 66.8255C52.8644 61.1079 56.7287 56.1001 61.9139 53.1034C66.4683 50.4812 71.8901 49.5742 77.0359 50.56Z" fill="#05A0F2"/>
<path d="M63.9447 8.42733C63.2743 8.84136 62.604 10.044 62.604 10.8129C62.604 11.7396 62.9392 12.4493 63.8461 13.3563L64.6544 14.204L63.8461 15.0321C62.9392 15.9587 62.604 16.6685 62.604 17.6149C62.604 18.9752 64.0038 20.3159 65.4036 20.3159C66.4289 20.3159 67.0006 20.0596 67.9864 19.1527L68.8539 18.3641L69.5242 19.0541C70.4114 19.9808 71.0818 20.3159 72.0676 20.3159C73.0533 20.3159 73.8814 19.9216 74.394 19.1921C75.2615 17.9303 75.0643 16.4319 73.8025 15.0715L73.0139 14.204L73.8223 13.2971C74.7686 12.2128 75.0841 11.2664 74.8278 10.2017C74.532 8.8808 73.4871 8.09217 72.0676 8.09217C71.0621 8.09217 70.6283 8.30904 69.6031 9.29483L68.7947 10.0637L68.1244 9.35397C67.7498 8.95966 67.1978 8.52591 66.902 8.36819C66.1923 7.99359 64.5953 8.03302 63.9447 8.42733Z" fill="#05A0F2"/>
<path d="M46.3781 11.5227C45.4317 11.8776 45.1557 12.0944 44.7811 12.9028C44.3671 13.79 44.3868 14.4998 44.86 15.4856C45.55 16.8854 45.826 16.9642 50.617 16.9642C54.4813 16.9642 54.8756 16.9248 55.467 16.5699C57.1232 15.5644 57.064 12.8042 55.3685 11.7001C54.915 11.3847 54.3038 11.3453 50.9719 11.3058C48.0934 11.2664 46.9498 11.3255 46.3781 11.5227Z" fill="#05A0F2"/>
<path d="M71.3377 54.8186C70.0562 55.5875 70.0759 55.4692 70.1351 65.051L70.1942 73.7259L70.7857 74.3371C71.1011 74.6723 71.6729 75.0272 72.0672 75.1455C72.5009 75.2835 74.788 75.3229 78.2185 75.2835C83.3643 75.2243 83.6995 75.2046 84.2318 74.8103C85.4345 73.9231 85.7893 72.3064 85.0599 70.9855C84.3304 69.6842 84.0149 69.6054 79.6775 69.6054H75.8132V63.1386C75.8132 55.9424 75.7737 55.7649 74.4528 54.8777C73.605 54.3059 72.2249 54.2665 71.3377 54.8186Z" fill="#05A0F2"/>
</svg>
