<svg width="75" height="98" viewBox="0 0 75 98" fill="none" xmlns="http://www.w3.org/2000/svg">
<path d="M32.1703 1.0447C24.0607 2.42788 17.3342 5.85741 11.7636 11.447C5.98459 17.226 2.38453 24.483 1.17188 32.7442C0.717132 35.9653 0.887661 41.9148 1.53188 45.098C2.574 50.1002 4.62035 54.894 7.4625 58.9867C8.80779 60.9194 37.6841 97.6779 37.8546 97.6779C38.0441 97.6779 67.0529 60.7299 68.3603 58.8351C70.8235 55.2919 72.6994 51.1613 73.7794 46.8791C75.2194 41.1759 75.2004 34.5252 73.7415 28.6704C71.392 19.2155 65.1582 10.8217 56.8023 5.83846C52.6148 3.33737 48.0674 1.72681 43.0462 0.949959C40.3557 0.552063 34.804 0.589958 32.1703 1.0447ZM42.3073 6.80479C49.0716 7.84692 54.737 10.708 59.6065 15.5018C66.2382 22.0198 69.5161 30.7168 68.8909 40.1148C68.5498 45.2875 66.7498 50.5929 63.8697 54.8751C62.7708 56.5235 38.0251 88.1851 37.8546 88.1851C37.703 88.1851 13.2037 56.8835 12.0478 55.1972C10.2857 52.6203 8.59937 48.9634 7.72777 45.7612C6.49617 41.1569 6.45828 35.0747 7.63303 30.4136C9.11095 24.483 11.9531 19.5566 16.2921 15.3312C21.029 10.708 26.126 8.11218 32.8334 6.91848C35.183 6.48268 39.9009 6.44479 42.3073 6.80479Z" fill="#05A0F2"/>
<path d="M33.5915 12.5081C27.0167 13.7207 21.6355 16.9229 17.6755 21.9819C14.0565 26.6052 12.2754 31.8347 12.2754 37.7653C12.2754 40.6075 12.4838 42.2938 13.128 44.6244C14.8712 50.8582 18.6987 56.0119 24.3261 59.631C26.7514 61.2036 30.5599 62.6057 33.6484 63.1173C35.96 63.4773 39.7495 63.4773 42.0611 63.1173C52.7666 61.3931 61.4446 52.7151 63.1688 42.0096C63.5289 39.698 63.5289 35.9085 63.1688 33.5968C61.4257 22.7588 52.615 14.0807 41.7011 12.4323C39.9011 12.1481 35.2589 12.2049 33.5915 12.5081ZM42.6864 18.6282C50.2276 20.6935 55.7035 26.5104 57.2572 34.0895C57.674 36.0411 57.674 39.5654 57.2761 41.517C55.6087 49.5887 49.6402 55.5572 41.5685 57.2246C39.6169 57.6225 36.0926 57.6225 34.141 57.2056C26.4672 55.633 20.5366 49.9676 18.6039 42.3507C18.3197 41.2138 18.2439 40.2854 18.2629 37.6138C18.2629 34.5821 18.3197 34.1463 18.7934 32.5926C20.0629 28.3862 22.2987 24.9946 25.5388 22.4177C28.0209 20.4093 31.4694 18.8366 34.52 18.2871C36.1495 18.0029 41.1516 18.2113 42.6864 18.6282Z" fill="#05A0F2"/>
<path d="M41.0374 36.0411L35.0121 42.0664L31.791 38.8453L28.5699 35.6242L26.4477 37.7653L24.3066 39.8875L29.6688 45.2307L35.0121 50.5929L43.1975 42.4075L51.4018 34.2032L49.3176 32.1189C48.1807 30.982 47.1954 30.0347 47.1386 30.0347C47.0817 30.0347 44.3343 32.7442 41.0374 36.0411Z" fill="#05A0F2"/>
</svg>
