<svg width="83" height="83" viewBox="0 0 83 83" fill="none" xmlns="http://www.w3.org/2000/svg">
<path d="M4.55717 0.99677C4.28459 1.26935 4.23649 1.5259 4.23649 2.92089V4.52432H2.63305C0.292044 4.52432 0.38825 4.36398 0.38825 8.37255C0.38825 12.3811 0.292044 12.2208 2.63305 12.2208H4.23649V13.8242C4.23649 16.1652 4.07614 16.069 8.08472 16.069C12.0933 16.069 11.933 16.1652 11.933 13.8242V12.2208H13.5364C15.8774 12.2208 15.7812 12.3811 15.7812 8.37255C15.7812 4.36398 15.8774 4.52432 13.5364 4.52432H11.933V2.92089C11.933 0.579878 12.0933 0.676084 8.08472 0.676084C5.0863 0.676084 4.86182 0.692118 4.55717 0.99677ZM9.36747 4.84501C9.36747 7.02567 9.4316 7.08981 11.6123 7.08981H13.2157V8.37255V9.6553H11.6123C9.4316 9.6553 9.36747 9.71944 9.36747 11.9001V13.5035H8.08472H6.80198V11.9001C6.80198 9.71944 6.73784 9.6553 4.55717 9.6553H2.95374V8.37255V7.08981H4.55717C6.73784 7.08981 6.80198 7.02567 6.80198 4.84501V3.24157H8.08472H9.36747V4.84501Z" fill="#05A0F2"/>
<path d="M42.222 0.916794C39.2075 1.51007 35.0707 3.45022 32.1203 5.61485C31.495 6.07985 31.2385 6.46467 30.2123 8.54913C29.4586 10.0564 28.9295 10.9382 28.7692 10.9382C28.2881 10.9382 26.845 11.74 26.1075 12.4134C25.0813 13.3594 24.2475 14.6903 23.6382 16.3578C23.3656 17.1275 22.6922 18.6187 22.131 19.6769C20.0465 23.6695 15.5569 30.7727 13.4564 33.3863C11.7247 35.5509 10.5381 37.2506 9.38368 39.2228C6.06458 44.8669 3.80374 51.6173 3.09823 57.9188C2.87375 59.9231 2.72944 60.34 1.78341 61.4944C0.661011 62.8734 0.388428 63.7873 0.388428 66.2406C0.388428 68.4694 0.596874 69.5116 1.30238 70.7302C2.26444 72.3817 3.6915 73.5362 5.8401 74.37C6.64181 74.6746 7.33129 75.0915 7.87645 75.5886C10.1052 77.5929 13.9535 78.6512 20.1106 78.9398C23.8306 79.1001 24.3437 79.1803 27.8392 80.0461C32.2807 81.1525 35.4875 81.4892 41.6447 81.4892C46.1664 81.4892 47.8821 81.361 50.8324 80.7677C55.4182 79.8377 59.4107 77.9937 62.4733 75.3641L63.5316 74.4502L66.6903 78.4106C68.4381 80.5913 69.9774 82.4673 70.1056 82.5635C70.298 82.7239 71.677 82.772 75.7818 82.772H81.2014V81.4892V80.2065H76.4392H71.661L67.6043 75.1076L63.5316 70.0247L69.3841 69.9766L75.2366 69.9445L77.8021 71.7885C79.2131 72.7986 80.3997 73.6324 80.4478 73.6324C80.6241 73.6324 82.0191 71.5319 81.939 71.4036C81.8909 71.3235 80.5921 70.3774 79.0849 69.2871C75.7016 66.882 73.569 64.8135 72.0298 62.4886C71.4525 61.6067 69.7529 58.6083 68.2777 55.8343C66.1291 51.8257 65.4076 50.6232 64.7662 49.9658C63.6919 48.8915 62.3931 48.2822 60.8378 48.1539L59.6352 48.0577L60.6775 47.3201C64.205 44.8188 67.8608 43.4879 72.0618 43.1672C73.1682 43.087 75.6695 43.0069 77.6418 43.0069H81.2014V41.7081V40.4093L75.4771 40.4895C70.3942 40.5536 69.5765 40.6017 68.3579 40.8903C64.1729 41.9005 61.4792 43.2314 57.3263 46.358L55.4663 47.7691L54.8249 47.5446C52.9489 46.8711 48.5395 46.6306 46.3909 47.0796C44.114 47.5606 41.4042 49.0037 39.1594 50.9278L37.9248 51.9861H35.1829H32.4571V43.9369V35.8716L34.8943 28.56L37.3315 21.2323L38.5501 21.1681C39.5763 21.1361 39.913 21.0399 40.5704 20.639C41.0354 20.3504 41.5485 19.8373 41.8371 19.4044C42.1097 18.9875 42.3983 18.6507 42.4785 18.6507C42.5747 18.6507 42.8152 19.0195 43.0237 19.4525C43.5688 20.639 44.5149 21.2002 45.9259 21.2002C46.8238 21.2002 47.0964 21.1361 47.7378 20.7192C48.1547 20.4626 48.4914 20.174 48.4914 20.0778C48.4914 19.9976 48.8121 19.9175 49.2129 19.9175C49.7741 19.9175 50.4476 20.174 52.516 21.2002C55.0173 22.4509 55.1296 22.483 56.252 22.483C58.1601 22.483 59.6192 21.5209 60.4049 19.7732C60.6614 19.1638 60.6935 18.8592 60.6133 17.6887C60.5492 16.9351 60.5011 16.1334 60.5171 15.9089C60.5331 15.6844 60.5812 13.7763 60.6133 11.6438L60.6935 7.77949L57.9356 4.34814C56.4284 2.45609 55.1135 0.868698 55.0173 0.804558C54.6646 0.580078 43.3764 0.692314 42.222 0.916794ZM55.8351 6.11192L58.112 8.98206V11.4994C58.112 14.097 57.9997 14.6261 57.4706 14.6261C56.9575 14.6261 56.8292 14.113 56.8292 12.1729V10.345L54.8249 7.68328C53.7186 6.20812 52.7725 5.00555 52.7244 5.00555C52.6122 5.00555 50.5758 6.48071 50.5758 6.56087C50.5758 6.59294 51.4096 7.71535 52.4198 9.07826L54.2637 11.5315V13.4075C54.2637 15.3958 54.1355 15.9089 53.6224 15.9089C53.1093 15.9089 52.981 15.3958 52.981 13.4556V11.6277L50.9767 8.96603C49.8703 7.49087 48.9243 6.28829 48.8762 6.28829C48.764 6.28829 46.7276 7.76345 46.7276 7.84362C46.7276 7.87569 47.5614 8.99809 48.5715 10.361L50.4155 12.8143V14.6903C50.4155 16.6785 50.2872 17.1916 49.7741 17.1916C49.3091 17.1916 49.1327 16.6946 49.1327 15.3797V14.1772L46.4871 10.8741C45.028 9.06223 43.7773 7.57104 43.6971 7.57104C43.6169 7.57104 43.1359 7.90776 42.6068 8.32465C42.0937 8.74155 41.6608 9.0943 41.6287 9.11033C41.5966 9.12637 42.687 10.5534 44.0659 12.2691L46.5673 15.3797V16.6144C46.5673 17.9773 46.3909 18.4744 45.9259 18.4744C45.5411 18.4744 45.2845 18.0094 45.2845 17.3039C45.2845 16.8228 44.9157 16.2777 42.6389 13.4396C41.1797 11.6277 39.9291 10.1365 39.8489 10.1365C39.7687 10.1365 39.2877 10.4733 38.7585 10.8901C38.2454 11.307 37.7965 11.6598 37.7805 11.6758C37.7484 11.6919 38.486 12.67 39.432 13.8405C41.0515 15.8608 41.1316 15.9891 40.7949 16.1334C40.6025 16.2135 40.2818 16.6144 40.0734 17.0153C39.4801 18.1858 39.0472 18.4904 37.8767 18.5866L36.8505 18.6668L35.6639 17.7047C34.6217 16.8709 33.9803 16.1975 32.5052 14.3375L32.2165 13.9848L31.1422 14.7063C30.5329 15.1072 30.0519 15.476 30.0519 15.5401C30.0519 15.8287 32.0081 18.1376 33.2267 19.2921L34.6057 20.6069L32.2486 27.6781L29.8916 34.7492V43.6964V52.6435L26.1235 57.0048L22.3715 61.3662L23.3656 62.2801C23.9108 62.7932 24.4078 63.178 24.4559 63.162C24.5201 63.146 25.4501 62.0877 26.5404 60.805L28.5287 58.496L28.5768 59.7307L28.6249 60.9653H30.7254H32.8259L34.2689 62.4886C37.2994 65.7275 40.9873 68.0364 45.509 69.5597C47.2728 70.1369 50.5438 70.9066 51.2974 70.9066C51.5219 70.9066 51.6982 70.9547 51.6982 71.0188C51.6822 71.099 51.105 71.4998 50.3995 71.9167C47.7538 73.5041 45.4609 75.5886 43.7452 77.9456L43.1038 78.8275L40.4582 78.7955C35.3432 78.7153 32.3448 78.3465 28.2881 77.3203C25.434 76.5988 24.0871 76.4224 19.9343 76.1979C15.4126 75.9574 12.318 75.2519 10.3778 74.0172C9.91281 73.7286 9.43178 73.3117 9.28747 73.0872C9.1111 72.8307 8.48576 72.4779 7.33129 72.0129C5.16665 71.1471 4.2527 70.4416 3.59529 69.0947C3.16236 68.1968 3.08219 67.8761 3.06616 66.6415C3.01806 64.7173 3.14633 64.2363 3.99615 63.2101C5.21476 61.735 5.47131 61.0294 5.8401 58.1593C6.57767 52.3869 8.14904 47.3842 10.8107 42.3655C11.9973 40.1367 14.0817 36.978 15.5409 35.2302C17.3046 33.0977 21.3132 26.8603 23.9268 22.1943C24.5842 20.9918 25.5142 19.0837 25.9792 17.9292C27.2619 14.8025 27.9193 14.0168 29.4907 13.6641C29.9397 13.5679 30.4207 13.4556 30.581 13.4075C30.7574 13.3594 31.3828 12.2691 32.2165 10.6336L33.5634 7.93983L34.8622 7.10604C38.3417 4.86124 41.308 3.69073 44.1621 3.40211C44.8195 3.33798 47.2086 3.27384 49.4534 3.27384L53.5422 3.24178L55.8351 6.11192ZM57.9516 18.0895C57.9516 18.6828 57.8715 18.9073 57.4866 19.2921C56.7811 19.9976 56.1077 19.9656 54.5844 19.1799C53.5582 18.6507 53.5422 18.6507 54.1194 18.6347C54.6967 18.6347 56.1878 17.833 56.1878 17.5123C56.1878 17.4161 56.5727 17.352 57.0697 17.352H57.9516V18.0895ZM52.7084 49.8215C53.3017 49.9497 54.1034 50.1902 54.4722 50.3666C55.0494 50.6392 55.5465 50.7033 58.0318 50.7514C60.5492 50.7835 61.0142 50.8477 61.6395 51.1363C62.6336 51.5852 63.2269 52.2747 64.189 54.1026C64.9747 55.5617 65.0067 55.6579 64.7181 55.8183C64.189 56.0909 62.6657 58.2395 61.9121 59.7788C61.0623 61.4944 60.1483 64.1401 59.7314 66.1765L59.4428 67.6195L58.2563 68.0685C57.214 68.4694 56.8773 68.5175 55.3861 68.5014C48.315 68.4213 41.3721 65.6794 36.8184 61.1738L35.3272 59.6826L35.9686 58.7365C37.6041 56.3314 39.8809 53.83 41.8051 52.3549C42.8794 51.5211 45.0119 50.3666 46.1985 49.9978C47.85 49.4527 50.5598 49.3885 52.7084 49.8215ZM35.4074 54.744C35.3272 54.8562 34.8622 55.5297 34.3331 56.2191C33.82 56.9247 33.2908 57.6943 33.1626 57.9509L32.9221 58.3998H30.7574H28.5928L30.2443 56.4757L31.8959 54.5516H33.7077C35.1188 54.5516 35.4875 54.5997 35.4074 54.744ZM69.8491 64.2844C70.282 64.9097 71.0036 65.8397 71.4365 66.3368C71.8694 66.8339 72.2222 67.2668 72.2222 67.3149C72.2222 67.347 69.9934 67.379 67.2515 67.379H62.2969L62.3931 66.8499C62.9383 63.9317 64.4135 60.4362 65.8726 58.6243L66.3215 58.0471L67.6845 60.5965C68.4381 61.9915 69.4162 63.643 69.8491 64.2844ZM61.4471 71.8366C61.6716 72.1733 61.6556 72.2374 61.2226 72.7024C59.6352 74.386 55.7068 76.5827 52.6603 77.4806C50.9446 77.9777 47.8019 78.6031 47.0643 78.6031C46.6955 78.587 46.8078 78.4427 48.0905 77.2081C50.4476 74.9312 54.6005 72.4459 58.6732 70.8424L60.1163 70.2652L60.6614 70.8745C60.95 71.1952 61.3028 71.6281 61.4471 71.8366Z" fill="#05A0F2"/>
<path d="M67.4118 17.6724C67.1232 17.9611 67.0911 18.2016 67.0911 20.2379V22.4827H64.8463C61.7036 22.4827 61.9601 22.0177 61.9601 27.6137C61.9601 33.2097 61.7036 32.7447 64.8463 32.7447H67.0911V34.9895C67.0911 38.1322 66.6261 37.8757 72.2221 37.8757C77.8181 37.8757 77.3531 38.1322 77.3531 34.9895V32.7447H79.5979C82.7406 32.7447 82.4841 33.2097 82.4841 27.6137C82.4841 22.0177 82.7406 22.4827 79.5979 22.4827H77.3531V20.2379C77.3531 17.0952 77.8181 17.3518 72.2221 17.3518C67.9409 17.3518 67.7165 17.3678 67.4118 17.6724ZM74.7876 22.1621C74.7876 24.1984 74.8197 24.4389 75.1083 24.7275C75.3969 25.0162 75.6374 25.0482 77.6738 25.0482H79.9186V27.6137V30.1792H77.6738C75.6374 30.1792 75.3969 30.2113 75.1083 30.4999C74.8197 30.7885 74.7876 31.029 74.7876 33.0654V35.3102H72.2221H69.6566V33.0654C69.6566 31.029 69.6245 30.7885 69.3359 30.4999C69.0473 30.2113 68.8068 30.1792 66.7704 30.1792H64.5256V27.6137V25.0482H66.7704C68.8068 25.0482 69.0473 25.0162 69.3359 24.7275C69.6245 24.4389 69.6566 24.1984 69.6566 22.1621V19.9173H72.2221H74.7876V22.1621Z" fill="#05A0F2"/>
</svg>
