<svg width="89" height="88" viewBox="0 0 89 88" fill="none" xmlns="http://www.w3.org/2000/svg">
<path d="M52.7113 0.329002C48.8545 1.06609 45.289 2.95166 42.5293 5.72858C39.5981 8.67693 37.8496 11.951 36.8726 16.2878C36.7183 16.9391 36.6326 18.3276 36.6497 20.1446C36.6669 23.2644 36.9754 24.8243 38.0725 27.584C38.9295 29.7267 39.6495 30.7895 45.6662 38.9146L51.3914 46.6283L40.078 46.714L28.7475 46.7997L27.5647 47.2797C24.6849 48.4281 22.5422 50.7423 21.7023 53.6563C21.2395 55.2676 21.308 57.616 21.8737 59.2787C22.1137 59.9987 22.5251 60.9243 22.7651 61.3186C23.9307 63.1699 25.9363 64.7469 27.959 65.4497L29.0903 65.8268L54.4598 65.9125C79.1093 65.9982 79.8464 66.0154 80.4977 66.3239C81.3891 66.7696 82.2805 67.6781 82.6747 68.5523C83.0518 69.4094 83.1033 71.1578 82.7604 71.9806C82.4347 72.7863 81.3548 73.9176 80.532 74.3633L79.8292 74.7404L50.3972 74.7918C22.8508 74.8261 20.9481 74.809 20.9481 74.5347C20.9481 74.3804 20.6395 73.5919 20.2453 72.8034C18.9768 70.1979 16.3884 68.0723 13.5772 67.3524C12.1545 66.9924 9.66894 66.9924 8.28047 67.3524C4.71504 68.278 1.76669 71.2264 0.806767 74.8261C0.481078 76.0432 0.481078 78.9229 0.806767 80.14C1.74955 83.6883 4.71504 86.6538 8.26333 87.5966C9.48038 87.9222 12.3602 87.9222 13.5772 87.5966C16.4741 86.8252 18.9768 84.7853 20.2453 82.1627C20.6395 81.3742 20.9481 80.5857 20.9481 80.4314C20.9481 80.1571 22.9536 80.14 50.3115 80.14C79.1093 80.14 79.7092 80.14 81.0291 79.7972C84.286 78.9572 86.7201 76.7288 87.8343 73.5576C88.2286 72.392 88.3143 71.8949 88.3143 70.455C88.3143 69.4951 88.1943 68.3295 88.0572 67.7981C87.1658 64.4555 84.3032 61.6614 80.9263 60.8558C79.9835 60.6329 76.5381 60.5986 55.214 60.5986C28.7817 60.5986 29.7417 60.6329 28.4903 59.7416C27.6675 59.1587 26.9819 58.096 26.7762 57.0675C26.5019 55.7819 26.879 54.5134 27.839 53.4506C29.1931 52.0107 27.8904 52.1307 43.5235 52.0279L57.4252 51.9422L58.0423 51.4279C58.6594 50.9308 72.5784 31.8866 73.7268 30.0181C76.4866 25.4414 77.1209 19.1161 75.3553 13.6994C73.6754 8.52266 69.87 4.20299 64.9161 1.87174C62.242 0.603271 60.4764 0.226158 56.9453 0.157585C54.9226 0.123306 53.5513 0.174728 52.7113 0.329002ZM60.6307 5.93429C65.7389 7.47702 69.6643 11.8138 70.7785 17.1277C71.0528 18.499 71.1042 21.3617 70.8471 22.6473C70.5899 24.0015 70.0071 25.5956 69.3729 26.7784C68.8072 27.8069 56.8767 44.3485 56.6196 44.4513C56.4482 44.5027 44.5691 28.4754 43.7292 27.0527C41.5008 23.2301 41.2779 18.2762 43.1464 14.0765C44.9291 10.0483 48.5459 6.91135 52.677 5.83144C55.0254 5.1972 58.368 5.24863 60.6307 5.93429ZM12.9773 72.8377C14.2114 73.4034 14.8628 74.0205 15.4456 75.2032C16.7655 77.8259 15.6513 80.9114 12.9601 82.1455C11.1088 82.9855 8.81186 82.5569 7.32055 81.0828C5.02358 78.7858 5.4864 74.7747 8.21191 73.1634C9.87464 72.1863 11.3317 72.0835 12.9773 72.8377Z" fill="#05A0F2"/>
<path d="M54.3738 12.1907C53.191 12.5164 52.1283 13.1335 51.0655 14.1277C47.2086 17.7274 48.2714 24.4812 53.0539 26.7096C57.8535 28.9723 63.3217 26.1096 64.1616 20.8986C65.053 15.3619 59.8419 10.7165 54.3738 12.1907ZM57.6478 17.6074C58.5049 18.0874 59.0877 19.2016 58.9334 20.0587C58.6935 21.2929 57.3907 22.3042 56.2251 22.15C53.7738 21.8243 53.2082 18.6359 55.4023 17.5389C56.2079 17.1275 56.8422 17.1446 57.6478 17.6074Z" fill="#05A0F2"/>
</svg>
