<svg width="102" height="85" viewBox="0 0 102 85" fill="none" xmlns="http://www.w3.org/2000/svg">
<path d="M18.4238 1.27037C18.0018 1.59185 17.9014 1.85304 17.9014 2.53618C17.9014 3.66134 18.263 3.96272 20.1316 4.48512C20.9554 4.70614 22.0002 5.10798 22.4623 5.38927C24.1099 6.3336 25.6369 5.8313 25.6369 4.30429C25.6369 3.82208 25.4962 3.33987 25.2752 3.09876C24.5117 2.25489 20.875 0.848433 19.4485 0.848433C19.1873 0.848433 18.7251 1.02926 18.4238 1.27037Z" fill="#05A0F2"/>
<path d="M52.1786 1.27037C51.7567 1.59185 51.6562 1.85304 51.6562 2.53618C51.6562 3.66134 52.0179 3.96272 53.8865 4.48512C54.7103 4.70614 55.7551 5.10798 56.2172 5.38927C57.8647 6.3336 59.3917 5.8313 59.3917 4.30429C59.3917 3.82208 59.2511 3.33987 59.0301 3.09876C58.2666 2.25489 54.6299 0.848433 53.2033 0.848433C52.9422 0.848433 52.48 1.02926 52.1786 1.27037Z" fill="#05A0F2"/>
<path d="M12.1555 2.13419C9.78459 3.31963 8.86035 4.18359 8.86035 5.14802C8.86035 6.79558 10.5481 7.39834 11.9746 6.27318C12.3765 5.9517 13.2405 5.4494 13.8633 5.14802C15.8725 4.22378 15.9931 4.1635 16.2543 3.58082C16.5758 2.93787 16.4351 2.19446 15.8926 1.65197C15.2296 0.98893 14.1647 1.12958 12.1555 2.13419Z" fill="#05A0F2"/>
<path d="M45.9104 2.13419C43.5395 3.31963 42.6152 4.18359 42.6152 5.14802C42.6152 6.79558 44.303 7.39834 45.7295 6.27318C46.1314 5.9517 46.9953 5.4494 47.6182 5.14802C49.6274 4.22378 49.748 4.1635 50.0092 3.58082C50.3306 2.93787 50.19 2.19446 49.6475 1.65197C48.9845 0.988931 47.9196 1.12958 45.9104 2.13419Z" fill="#05A0F2"/>
<path d="M26.6018 6.07227C25.6373 6.47411 25.4565 7.84038 26.22 9.14637C26.5013 9.60849 26.9031 10.6533 27.1242 11.4771C27.3452 12.3008 27.6867 13.1246 27.8676 13.3255C28.2091 13.6872 27.9479 13.7073 18.3439 13.7073H8.45851V12.9036C8.45851 12.4817 8.67952 11.4369 8.94072 10.593C9.20192 9.76923 9.38275 8.88517 9.32247 8.62397C9.06127 7.59927 8.01648 7.07687 6.99177 7.45863C6.06753 7.82028 5.04283 10.5528 5.04283 12.6826V13.7073H3.03361C0.662732 13.7073 0.220703 13.9484 0.220703 15.3147C0.220703 16.701 0.642639 16.9221 3.23453 16.9221C5.24375 16.9221 5.44468 16.9622 5.44468 17.2837C5.44468 17.8664 6.28855 18.5294 7.03196 18.5294C7.91602 18.5294 8.35804 18.2682 8.65943 17.5248L8.90053 16.9221H12.7984H16.6963L16.2744 17.9668C15.6113 19.6747 14.446 22.4474 14.3857 22.5077C14.2049 22.6885 12.5171 21.6035 11.4723 20.6391C10.8093 20.0363 10.0458 19.4939 9.74441 19.4135C8.63933 19.1322 7.4539 20.3377 7.73519 21.4629C7.93611 22.3068 10.0056 24.1753 11.613 24.979C12.3564 25.3608 13.0194 25.6823 13.0395 25.7023C13.0797 25.7224 10.5682 31.951 7.47399 39.566C3.63638 48.9892 1.82808 53.6506 1.82808 54.1529C1.82808 55.1173 2.25002 55.4991 4.25924 56.2827C6.18809 57.0261 7.03196 57.0864 7.59454 56.4434C7.81555 56.2023 10.2869 50.4358 13.0797 43.6447C16.0333 36.4115 18.3037 31.1473 18.5448 30.9263C19.1074 30.4441 19.9512 30.4843 20.4535 31.0268C20.6746 31.288 23.6884 36.5521 27.1443 42.7405C30.58 48.9289 33.5938 54.1529 33.8149 54.3337C34.3975 54.8561 35.5026 54.7959 36.0451 54.2333C36.2862 53.9922 39.1996 48.9289 42.5148 42.9816C48.8438 31.6095 49.0247 31.3683 50.0895 31.7702C50.3507 31.8706 50.6722 32.0716 50.8129 32.2323C50.9334 32.393 54.4897 43.725 58.689 57.4279C62.8883 71.1107 66.4647 82.7039 66.6455 83.1861C66.8263 83.6483 67.1277 84.1305 67.3287 84.2309C67.7908 84.472 68.936 84.4921 69.3178 84.251C69.4785 84.1506 72.4522 78.4243 75.9482 71.5527C82.8197 57.9905 82.7796 58.0709 83.965 58.7138C84.3668 58.9549 85.8738 61.4665 90.0529 68.9609C93.1069 74.4259 95.8194 79.0471 96.0605 79.2481C96.3016 79.449 96.7436 79.6097 97.0048 79.6097C97.5674 79.6097 100.441 78.143 101.104 77.5402C102.028 76.6763 101.927 76.4552 92.9663 60.4217C88.3451 52.1236 84.3869 45.1918 84.1659 44.9909C83.7239 44.6091 82.7796 44.5488 82.1969 44.8502C81.996 44.9507 79.4643 49.7125 76.4706 55.6397C73.5171 61.4866 70.9252 66.4493 70.6841 66.7105C70.463 66.9516 70.0612 67.1526 69.8201 67.1526C68.6346 67.1526 68.715 67.4138 62.2855 46.4576C58.9502 35.5676 56.1775 26.506 56.1373 26.3252C56.0569 26.0841 56.2779 25.8631 56.8606 25.5617C57.7849 25.0996 58.1666 24.3964 57.9858 23.5324C57.7447 22.4876 56.7602 22.0456 55.4743 22.4273C54.9519 22.568 54.9318 22.5278 54.1884 19.9962C53.7463 18.5897 53.3646 17.3038 53.3043 17.1632C53.244 16.9823 54.0276 16.9221 56.8606 16.9221C59.4927 16.9221 60.4973 16.9823 60.4973 17.1632C60.4973 17.4645 59.553 19.0719 58.9502 19.7952C57.9456 21.0209 58.6689 22.7488 60.216 22.7488C60.7987 22.7488 61.08 22.6081 61.6426 21.9853C62.386 21.1615 64.1139 17.9066 64.1139 17.3038C64.1139 16.9421 64.2947 16.9221 66.324 16.9221C68.9159 16.9221 69.3379 16.701 69.3379 15.3147C69.3379 13.9082 68.9561 13.7073 66.103 13.7073H63.692L64.0938 13.1849C64.3349 12.8835 64.5157 12.4214 64.5157 12.1602C64.5157 10.7337 63.1093 7.09696 62.2654 6.33346C62.0243 6.11244 61.5421 5.9718 61.0599 5.9718C59.5329 5.9718 59.0306 7.49881 59.9749 9.14637C60.2562 9.60849 60.658 10.6533 60.8791 11.4771C61.1001 12.3008 61.4416 13.1246 61.6225 13.3255C61.964 13.6872 61.7028 13.7073 52.0988 13.7073H42.2134V12.9036C42.2134 12.4817 42.4344 11.4369 42.6956 10.593C42.9568 9.76923 43.1376 8.88517 43.0774 8.62397C42.8162 7.59927 41.7714 7.07687 40.7467 7.45863C39.8224 7.82028 38.7977 10.5528 38.7977 12.6826V13.7073H34.3574H29.9371L30.3389 13.1849C30.58 12.8835 30.7608 12.4214 30.7608 12.1602C30.7608 10.7939 29.3544 7.09696 28.5507 6.37364C28.1288 5.99189 27.1643 5.83116 26.6018 6.07227ZM8.31786 14.953C8.37814 15.6562 8.4786 16.3796 8.55897 16.5604C8.67952 16.8819 8.55897 16.9221 7.1927 16.9221C6.26846 16.9221 5.60541 16.8216 5.52504 16.701C5.44467 16.5604 5.34421 15.8371 5.28394 15.0937L5.18348 13.7073H6.69039H8.19731L8.31786 14.953ZM42.0728 14.953C42.133 15.6562 42.2335 16.3796 42.3139 16.5604C42.4344 16.8819 42.3139 16.9221 40.9476 16.9221C40.0234 16.9221 39.3603 16.8216 39.2799 16.701C39.1996 16.5604 39.0991 15.8371 39.0388 15.0937L38.9384 13.7073H40.4453H41.9522L42.0728 14.953ZM29.8165 15.9576C30.4796 16.7412 30.2786 16.9221 28.6512 16.9221C27.7068 16.9221 27.1443 16.8417 27.1443 16.701C27.1443 16.5805 27.4255 16.2188 27.747 15.8773C28.2493 15.395 28.4703 15.2946 28.9124 15.395C29.2137 15.4754 29.6156 15.7165 29.8165 15.9576ZM63.5714 15.9576C64.2345 16.7412 64.0335 16.9221 62.4061 16.9221C61.4617 16.9221 60.8991 16.8417 60.8991 16.701C60.8991 16.5805 61.1804 16.2188 61.5019 15.8773C62.0042 15.395 62.2252 15.2946 62.6673 15.395C62.9686 15.4754 63.3705 15.7165 63.5714 15.9576ZM19.8709 16.259L20.3732 16.9221H18.7256C16.9575 16.9221 16.7566 16.7613 17.5201 15.9375C18.1429 15.2745 19.2078 15.4151 19.8709 16.259ZM52.4604 15.9174C53.244 16.701 53.0029 16.9221 51.3554 16.9221C50.5316 16.9221 49.8484 16.8417 49.8484 16.7412C49.8484 16.6609 50.0293 16.3394 50.2704 16.038C50.7928 15.375 51.8577 15.3147 52.4604 15.9174ZM26.7424 17.1632C26.7424 17.4645 25.7981 19.0719 25.1953 19.7952C24.1907 21.0209 24.914 22.7488 26.4611 22.7488C27.0438 22.7488 27.3251 22.6081 27.8877 21.9853C28.6311 21.1615 30.359 17.9066 30.359 17.3038C30.359 16.9421 30.58 16.9221 34.7793 16.9221C38.7977 16.9221 39.1996 16.9622 39.1996 17.2636C39.1996 17.8664 40.0233 18.5294 40.7467 18.5294C41.6709 18.5294 42.1129 18.2682 42.4143 17.5248L42.6554 16.9221H46.051H49.4265L48.0803 19.3331C47.3369 20.6592 46.6739 21.7442 46.5734 21.7442C46.493 21.7442 45.8903 21.2419 45.2272 20.6391C43.8811 19.3934 43.1979 19.1322 42.4344 19.5541C40.7467 20.5186 41.249 22.146 43.8409 24.0548L44.966 24.8786L40.4855 32.8954C35.7035 41.4546 35.5227 41.7158 34.3774 41.2336C33.9153 41.0327 32.9911 39.4856 28.9726 32.1318C26.3004 27.2494 24.03 23.1104 23.9295 22.9497C23.3468 21.9652 20.7147 17.1431 20.7147 17.0426C20.7147 16.9823 22.081 16.9221 23.7286 16.9221C25.8784 16.9221 26.7424 16.9823 26.7424 17.1632ZM48.3214 23.2511C48.9644 24.9589 46.8748 26.0841 45.4482 24.8183C45.388 24.7781 45.6693 24.1753 46.0309 23.4721L46.7141 22.1862L47.4575 22.568C47.8593 22.7689 48.2411 23.0703 48.3214 23.2511ZM23.829 23.4118C24.2309 24.1352 24.2309 24.1352 23.8089 24.6776C22.9852 25.7827 18.6854 26.8275 17.2991 26.2448C16.6561 25.9635 16.3748 25.2804 16.5758 24.4365C16.7365 23.8137 17.721 23.3516 18.9466 23.3315C19.4288 23.3315 20.4535 23.1305 21.2171 22.8693C22.8646 22.3269 23.2865 22.4273 23.829 23.4118ZM55.2532 24.2959C55.4743 25.0192 55.6149 25.7023 55.5546 25.7827C55.414 26.0238 53.5253 26.3654 52.2595 26.3654C50.8932 26.3654 50.2503 25.9435 50.2503 25.0393C50.2503 23.9342 51.054 23.3716 52.7417 23.3315C53.2038 23.3114 53.7865 23.231 54.0678 23.1506C54.3491 23.0703 54.6304 22.9899 54.7108 22.9698C54.7911 22.9497 55.0322 23.5525 55.2532 24.2959ZM14.6871 23.894C14.6871 24.3964 14.004 25.3608 13.6624 25.3608C13.582 25.3608 13.6825 24.8987 13.9236 24.3562C14.3857 23.2511 14.6871 23.0703 14.6871 23.894Z" fill="#05A0F2"/>
</svg>
