<svg width="91" height="90" viewBox="0 0 91 90" fill="none" xmlns="http://www.w3.org/2000/svg">
<path d="M39.9826 0.489853C23.7044 2.50275 9.85921 13.2849 3.75051 28.6879C2.47276 31.8735 1.33503 36.5645 0.949955 40.1702C0.722411 42.3581 0.722411 47.7142 0.949955 49.9021C2.7003 66.4253 13.5874 80.6556 29.2355 86.8694C32.4212 88.1471 37.1121 89.2848 40.7178 89.6699C42.9057 89.8975 48.2618 89.8975 50.4497 89.6699C68.2332 87.7795 83.3387 75.2646 88.5372 58.0937C89.8325 53.8404 90.3926 49.9021 90.3926 45.0361C90.3926 41.3779 90.2175 39.365 89.5874 36.1969C86.6468 21.2839 76.2673 8.8915 61.932 3.20289C58.7463 1.92513 54.0554 0.787407 50.4497 0.402336C48.1568 0.157288 42.2406 0.209793 39.9826 0.489853ZM52.165 7.91132C60.0066 9.39911 66.6579 12.8823 72.2065 18.4309C77.7376 23.962 81.2208 30.5958 82.7436 38.5423C83.0761 40.3102 83.1286 41.1504 83.1286 45.0361C83.1286 48.9219 83.0761 49.7621 82.7436 51.5299C81.2208 59.4765 77.7551 66.0928 72.189 71.6589C66.6579 77.19 60.0241 80.6731 52.0775 82.1959C50.3097 82.5285 49.4695 82.581 45.5837 82.581C41.698 82.581 40.8578 82.5285 39.09 82.1959C31.1434 80.6731 24.5271 77.2075 18.961 71.6414C13.4299 66.1103 9.94673 59.4765 8.42393 51.5299C8.09136 49.7621 8.03885 48.9219 8.03885 45.0361C8.03885 41.1504 8.09136 40.3102 8.42393 38.5423C9.94673 30.5958 13.4124 23.9795 18.9785 18.4134C24.5096 12.8823 31.441 9.25908 39.0025 7.92882C41.8555 7.43872 41.8205 7.43872 46.1964 7.49123C49.417 7.52624 50.6072 7.61375 52.165 7.91132Z" fill="#05A0F2"/>
<path d="M62.2126 29.8083C61.88 29.8608 61.4074 30.0183 61.1624 30.1408C60.9174 30.2633 55.9114 35.1643 50.0477 41.028L39.3706 51.6876L34.9072 47.2067C32.0542 44.3536 30.1988 42.6033 29.7437 42.3932C28.9911 42.0432 27.6608 41.9557 26.9607 42.2357C26.2605 42.4983 25.1403 43.6185 24.9303 44.2661C24.6327 45.1413 24.6852 46.489 25.0353 47.1717C25.4379 47.9768 36.9376 59.5116 37.7778 59.9492C38.618 60.3868 40.0007 60.4043 40.9459 60.0192C41.9261 59.5991 65.7483 35.7944 66.1509 34.8142C67.2886 32.0837 65.0657 29.2832 62.2126 29.8083Z" fill="#05A0F2"/>
</svg>
