<svg width="99" height="106" viewBox="0 0 99 106" fill="none" xmlns="http://www.w3.org/2000/svg">
<path d="M74.3439 31.5109C72.6305 31.7495 70.0279 32.5736 68.1843 33.4412C62.3067 36.2173 58.2075 41.3792 56.7327 47.9075C56.2556 50.0113 56.2772 54.7612 56.7544 56.9517C57.9473 62.4823 60.9403 68.4033 65.5383 74.3027C68.4446 78.0548 74.3222 84.518 75.4284 85.1904C76.2308 85.6675 77.9226 85.7109 78.8985 85.2338C79.5926 84.9084 84.0604 80.2237 86.7715 76.9921C93.0396 69.4661 96.705 62.6341 97.7894 56.4312C98.2665 53.7418 98.093 49.0353 97.4424 46.758C95.1651 38.7766 88.897 33.0942 80.7638 31.6844C79.0937 31.3807 75.8838 31.294 74.3439 31.5109ZM80.3517 36.6728C83.5833 37.3451 86.1426 38.7549 88.5934 41.1623C90.0032 42.5721 90.4369 43.1794 91.3479 45.0663C92.6275 47.7557 93.1046 49.7294 93.1046 52.5055C93.1046 56.0625 92.0853 59.6628 89.9164 63.6752C87.6608 67.8828 83.323 73.5436 78.4865 78.6187L77.1851 80.0068L75.9055 78.6187C68.4663 70.4855 64.1936 64.2174 62.4368 58.882C60.7017 53.6984 60.9186 49.5776 63.1092 45.0229C65.1479 40.7936 69.5073 37.562 74.4741 36.586C75.9706 36.2824 78.7684 36.3258 80.3517 36.6728Z" fill="#05A0F2"/>
<path d="M73.8014 41.3141C69.0298 42.854 65.9067 46.8664 65.6247 51.8548C65.2343 58.4264 70.548 64.1089 77.098 64.1089C82.4768 64.1089 86.923 60.7905 88.4846 55.5635C88.9834 53.9152 88.9184 50.6836 88.3545 48.9051C87.1833 45.218 84.0384 42.225 80.2863 41.2273C78.6379 40.7719 75.2979 40.8369 73.8014 41.3141ZM79.5055 46.2374C80.72 46.6495 82.2816 47.9942 83.019 49.2304C85.6434 53.6983 81.9346 59.4892 76.751 59.0771C74.3436 58.8819 72.1747 57.342 71.1553 55.1081C70.4613 53.5682 70.4613 51.1824 71.1987 49.6859C72.7169 46.5844 76.2305 45.1096 79.5055 46.2374Z" fill="#05A0F2"/>
<path d="M6.54504 51.421C4.91838 52.0066 3.98577 52.6356 2.83627 53.8935C1.18793 55.672 0.645712 57.0818 0.624023 59.6627C0.624023 61.4412 0.68909 61.7665 1.33975 63.1763C2.22899 65.0632 3.81226 66.6682 5.63411 67.5357C6.76192 68.0563 7.15232 68.1213 9.16937 68.1213C11.1864 68.1213 11.5768 68.0563 12.7046 67.5357C14.3096 66.7766 16.1748 64.9982 16.8905 63.5233L17.4761 62.3521L28.1253 62.4172C38.6877 62.4823 38.7744 62.4823 40.0324 62.9811C44.2183 64.6728 46.6474 69.3359 45.5196 73.5435C44.6954 76.6233 42.57 78.9223 39.5769 79.92C38.319 80.3537 37.7551 80.3754 30.3809 80.3754C26.0432 80.3754 21.944 80.4622 21.2283 80.5923C15.6543 81.5032 12.2058 86.9037 13.6155 92.4127C14.5482 95.9913 17.628 98.7241 21.3584 99.2446C22.1175 99.3747 33.092 99.4615 45.8449 99.4615H68.9651L69.4856 100.589C70.223 102.173 71.7846 103.691 73.5197 104.515C74.8861 105.166 75.1681 105.209 77.2719 105.209C79.2889 105.209 79.701 105.144 80.7854 104.623C82.5205 103.821 84.0821 102.303 84.928 100.568C85.5786 99.2229 85.622 99.006 85.622 96.7504C85.622 94.4731 85.5786 94.2779 84.9063 92.9115C82.9543 88.9208 78.2695 87.1857 73.9101 88.834C72.1533 89.5064 69.9194 91.7186 69.3338 93.3453L68.9217 94.4731L45.2593 94.4297L21.597 94.3646L20.5342 93.714C19.298 92.9549 18.2786 91.2415 18.2786 89.9185C18.2786 88.5954 19.298 86.882 20.5342 86.1229L21.597 85.4723L30.7279 85.3421C40.8349 85.212 40.5746 85.2554 43.6327 83.6287C46.4739 82.1105 49.0115 79.0307 50.0959 75.7557C50.5948 74.2158 50.6815 73.6303 50.6815 71.3746C50.6815 69.0973 50.5948 68.5551 50.0742 67.0369C48.4042 62.1569 44.7388 58.8386 39.8155 57.7324C38.4925 57.4288 36.6489 57.3854 27.865 57.3854H17.4761L17.346 56.7781C17.1291 55.7588 15.5675 53.6116 14.418 52.7657C12.8348 51.5945 11.2081 51.0957 9.08261 51.1174C8.10662 51.1174 6.97881 51.2475 6.54504 51.421ZM11.0346 56.6263C12.0323 57.2119 12.8564 58.5783 12.8564 59.6627C12.8564 61.4195 11.0346 63.2414 9.2995 63.2414C6.97881 63.2414 5.13527 61.0074 5.69918 58.8819C6.34984 56.4528 8.88741 55.3684 11.0346 56.6263ZM78.7684 93.6055C82.2386 95.3623 81.0457 100.329 77.1417 100.329C75.732 100.329 74.474 99.4832 73.9318 98.1818C73.3462 96.6853 73.5414 95.5358 74.6258 94.3863C75.797 93.1501 77.3152 92.8681 78.7684 93.6055Z" fill="#05A0F2"/>
<path d="M7.32635 1.1099C6.89258 1.54367 6.89258 1.82563 6.89258 24.9675C6.89258 48.1093 6.89258 48.3912 7.32635 48.825C7.6083 49.107 8.04208 49.2588 8.62767 49.2588C9.21327 49.2588 9.64704 49.107 9.92899 48.825C10.3411 48.4129 10.3628 48.1093 10.3628 37.5469V26.7026H26.8462C43.0476 26.7026 43.3296 26.7026 43.7633 26.2688C44.067 25.9651 44.1971 25.5531 44.1971 24.9241C44.1971 24.0132 44.1321 23.9481 39.0569 18.8512L33.9167 13.6893L39.0569 8.52743C44.1321 3.43059 44.1971 3.36552 44.1971 2.4546C44.1971 1.82563 44.067 1.41354 43.7633 1.1099C43.3296 0.676128 43.0476 0.676128 25.5448 0.676128C8.04208 0.676128 7.76013 0.676128 7.32635 1.1099ZM33.7215 8.44068C29.4705 12.7133 29.4488 12.735 29.4488 13.6893C29.4488 14.6436 29.4705 14.6653 33.7215 18.938L37.9942 23.2324H24.1785H10.3628V13.6893V4.14632H24.1785H37.9942L33.7215 8.44068Z" fill="#05A0F2"/>
</svg>
