<svg width="21" height="17" viewBox="0 0 21 17" fill="none" xmlns="http://www.w3.org/2000/svg">
<path fill-rule="evenodd" clip-rule="evenodd" d="M3.07575 1.44597C2.43342 1.44597 1.90495 1.97443 1.90495 2.61676V13.8564C1.90495 14.4987 2.43342 15.0272 3.07575 15.0272H18.0619C18.7043 15.0272 19.2327 14.4987 19.2327 13.8564V2.61676C19.2327 1.97443 18.7043 1.44597 18.0619 1.44597H3.07575ZM0.5 2.61676C0.5 1.1985 1.65748 0.0410156 3.07575 0.0410156H18.0619C19.4802 0.0410156 20.6377 1.1985 20.6377 2.61676V13.8564C20.6377 15.2747 19.4802 16.4321 18.0619 16.4321H3.07575C1.65748 16.4321 0.5 15.2747 0.5 13.8564V2.61676Z" fill="white"/>
<path fill-rule="evenodd" clip-rule="evenodd" d="M0.627046 2.21376C0.84953 1.89592 1.28755 1.81862 1.60538 2.04111L10.5689 8.31557L19.5324 2.04111C19.8502 1.81862 20.2883 1.89592 20.5107 2.21376C20.7332 2.53159 20.6559 2.96961 20.3381 3.19209L10.9717 9.74854C10.7299 9.91786 10.4079 9.91786 10.1661 9.74854L0.799693 3.19209C0.481858 2.96961 0.404561 2.53159 0.627046 2.21376Z" fill="white"/>
</svg>
