<svg width="19" height="23" viewBox="0 0 19 23" fill="none" xmlns="http://www.w3.org/2000/svg">
<path fill-rule="evenodd" clip-rule="evenodd" d="M9.6322 2.39421C7.58281 2.39421 5.61735 3.20833 4.16821 4.65747C2.71907 6.10661 1.90495 8.07206 1.90495 10.1215C1.90495 13.1173 3.84782 15.9901 5.9273 18.1851C6.95268 19.2675 7.98044 20.1527 8.75265 20.7676C9.11072 21.0528 9.41261 21.2788 9.6322 21.4384C9.85178 21.2788 10.1537 21.0528 10.5118 20.7676C11.284 20.1527 12.3117 19.2675 13.3371 18.1851C15.4166 15.9901 17.3594 13.1173 17.3594 10.1215C17.3594 8.07206 16.5453 6.10661 15.0962 4.65747C13.647 3.20833 11.6816 2.39421 9.6322 2.39421ZM9.6322 22.2977C9.24253 22.8822 9.24235 22.8821 9.24213 22.8819L9.23976 22.8804L9.23394 22.8765L9.21332 22.8625C9.19565 22.8505 9.17023 22.8331 9.13756 22.8105C9.07223 22.7653 8.97789 22.699 8.85869 22.6129C8.62036 22.4408 8.2822 22.189 7.87746 21.8667C7.06909 21.223 5.98943 20.2936 4.90737 19.1514C2.77199 16.8974 0.5 13.682 0.5 10.1215C0.5 7.69945 1.46214 5.37664 3.17476 3.66402C4.88738 1.9514 7.21019 0.989258 9.6322 0.989258C12.0542 0.989258 14.377 1.9514 16.0896 3.66402C17.8023 5.37664 18.7644 7.69945 18.7644 10.1215C18.7644 13.682 16.4924 16.8974 14.357 19.1514C13.275 20.2936 12.1953 21.223 11.3869 21.8667C10.9822 22.189 10.644 22.4408 10.4057 22.6129C10.2865 22.699 10.1922 22.7653 10.1268 22.8105C10.0942 22.8331 10.0687 22.8505 10.0511 22.8625L10.0305 22.8765L10.0246 22.8804L10.0229 22.8815C10.0226 22.8817 10.0219 22.8822 9.6322 22.2977ZM9.6322 22.2977L10.0219 22.8822C9.7859 23.0395 9.47809 23.0393 9.24213 22.8819L9.6322 22.2977Z" fill="white"/>
<path fill-rule="evenodd" clip-rule="evenodd" d="M9.63226 8.01433C8.46836 8.01433 7.52483 8.95786 7.52483 10.1218C7.52483 11.2857 8.46836 12.2292 9.63226 12.2292C10.7962 12.2292 11.7397 11.2857 11.7397 10.1218C11.7397 8.95786 10.7962 8.01433 9.63226 8.01433ZM6.11987 10.1218C6.11987 8.18192 7.69242 6.60938 9.63226 6.60938C11.5721 6.60938 13.1446 8.18192 13.1446 10.1218C13.1446 12.0616 11.5721 13.6341 9.63226 13.6341C7.69242 13.6341 6.11987 12.0616 6.11987 10.1218Z" fill="white"/>
</svg>
