<svg width="20" height="20" viewBox="0 0 20 20" fill="none" xmlns="http://www.w3.org/2000/svg">
<path d="M8.79875 0.0287151C7.02388 0.243053 5.2678 0.983839 3.85392 2.1157C3.44404 2.44661 2.74086 3.14979 2.40995 3.55966C1.28186 4.96979 0.612517 6.55665 0.371856 8.37288C0.289129 9.01966 0.315451 10.4674 0.424501 11.0427C0.620038 12.0655 0.909584 12.9454 1.31946 13.7539C1.39091 13.8968 1.44731 14.0397 1.44731 14.0735C1.44731 14.1299 0.379377 19.0334 0.334253 19.1725C0.319212 19.2177 0.334253 19.2402 0.375617 19.2402C0.41322 19.2402 1.59772 18.977 3.01161 18.6536L5.58743 18.0708L6.06499 18.2738C6.94115 18.6499 7.83611 18.898 8.77995 19.0221C9.31768 19.0936 10.694 19.0823 11.243 18.9996C13.4127 18.6837 15.2477 17.7699 16.7706 16.2508C18.2522 14.7692 19.1773 12.9266 19.4856 10.8359C19.5759 10.2079 19.5759 8.82788 19.4856 8.22247C19.3164 7.11693 19.0268 6.21822 18.5342 5.24805C18.0529 4.30421 17.4964 3.54462 16.6992 2.75119C15.2928 1.35235 13.5781 0.464912 11.6002 0.111443C11.1226 0.0287151 10.9309 0.0136738 10.0773 0.00239372C9.53954 -0.00136757 8.96421 0.0099144 8.79875 0.0287151ZM11.0361 1.58925C14.6799 2.06681 17.6205 5.10892 17.9928 8.78276C18.3349 12.1821 16.3382 15.5175 13.1382 16.8825C10.9271 17.8264 8.44152 17.7549 6.31318 16.6795L5.82057 16.4313L4.1021 16.8223C3.1545 17.0404 2.37611 17.2097 2.36859 17.2021C2.36107 17.1946 2.52652 16.4237 2.72958 15.4912L3.10562 13.7878L2.88 13.3854C2.29714 12.3438 1.93239 11.133 1.86471 10.0199C1.70301 7.30871 2.90632 4.74793 5.11363 3.10842C6.8133 1.84495 8.89652 1.31099 11.0361 1.58925Z" fill="white"/>
<path d="M6.73094 5.323C6.41131 5.40572 6.0616 5.75543 5.80966 6.233C5.61412 6.60527 5.53892 6.9437 5.53516 7.41374C5.53516 8.14324 5.81342 8.84266 6.48276 9.79403C7.00544 10.5348 7.25363 10.8356 7.78007 11.3621C8.70887 12.2909 9.45718 12.7647 10.668 13.2009C11.6344 13.5468 12.2624 13.6559 12.8227 13.5694C13.3378 13.4867 14.0335 13.058 14.2516 12.682C14.4622 12.3247 14.5712 11.5351 14.4321 11.4072C14.3418 11.3282 12.7211 10.5311 12.4918 10.4558C12.394 10.422 12.2699 10.407 12.221 10.4182C12.1646 10.4333 11.9954 10.61 11.7773 10.8845C11.296 11.4862 11.2133 11.5689 11.0929 11.5689C10.9463 11.5689 10.1754 11.1891 9.75048 10.9071C9.13379 10.4972 8.51334 9.85795 8.06586 9.18109C7.74247 8.68473 7.74247 8.69601 8.12226 8.29742C8.37796 8.02667 8.5547 7.72209 8.5547 7.54535C8.5547 7.43254 7.8628 5.70655 7.74999 5.52981C7.63718 5.3606 7.51309 5.31172 7.16714 5.30043C6.9904 5.29667 6.79487 5.30419 6.73094 5.323Z" fill="white"/>
</svg>
