<svg width="21" height="21" viewBox="0 0 21 21" fill="none" xmlns="http://www.w3.org/2000/svg">
<path d="M20.1279 15.1202V17.9301C20.129 18.191 20.0755 18.4492 19.971 18.6882C19.8665 18.9272 19.7133 19.1417 19.5211 19.3181C19.3288 19.4944 19.1019 19.6287 18.8548 19.7123C18.6077 19.7958 18.3459 19.8269 18.0861 19.8034C15.2039 19.4902 12.4353 18.5053 10.0029 16.9279C7.73982 15.4899 5.82112 13.5712 4.38307 11.3081C2.80014 8.86461 1.81505 6.0826 1.5076 3.18746C1.4842 2.92845 1.51498 2.66741 1.59799 2.42094C1.681 2.17448 1.81442 1.948 1.98975 1.75593C2.16508 1.56386 2.37849 1.41039 2.61638 1.30532C2.85428 1.20024 3.11144 1.14584 3.37151 1.1456H6.18141C6.63597 1.14112 7.07664 1.30209 7.4213 1.59849C7.76595 1.89489 7.99107 2.30651 8.05469 2.75661C8.17329 3.65584 8.39323 4.53877 8.71033 5.38856C8.83635 5.7238 8.86362 6.08815 8.78892 6.43842C8.71422 6.78868 8.54067 7.1102 8.28884 7.36486L7.09932 8.55439C8.43267 10.8993 10.3742 12.8408 12.7191 14.1742L13.9087 12.9847C14.1633 12.7328 14.4848 12.5593 14.8351 12.4846C15.1854 12.4099 15.5497 12.4372 15.885 12.5632C16.7347 12.8803 17.6177 13.1002 18.5169 13.2188C18.9719 13.283 19.3874 13.5122 19.6845 13.8628C19.9815 14.2133 20.1393 14.6609 20.1279 15.1202Z" stroke="white" stroke-width="1.40495" stroke-linecap="round" stroke-linejoin="round"/>
</svg>
