<svg width="21" height="20" viewBox="0 0 21 20" fill="none" xmlns="http://www.w3.org/2000/svg">
<path d="M6.59155 19.5353C13.989 19.5353 18.0345 12.2873 18.0345 6.0025C18.0345 5.79658 18.0309 5.59171 18.0229 5.38763C18.8081 4.71633 19.4908 3.87839 20.0292 2.92497C19.3086 3.3036 18.5332 3.55856 17.7197 3.67352C18.5499 3.08475 19.1876 2.15295 19.4883 1.04238C18.7111 1.58738 17.8505 1.98341 16.9347 2.19698C16.2005 1.27256 15.1553 0.694336 13.9988 0.694336C11.7776 0.694336 9.97638 2.82451 9.97638 5.45012C9.97638 5.82347 10.0118 6.18628 10.0805 6.53459C6.73825 6.33605 3.77435 4.44317 1.79099 1.5655C1.44519 2.26817 1.2461 3.08502 1.2461 3.95591C1.2461 5.60595 1.9562 7.06272 3.03594 7.91515C2.37623 7.89116 1.75643 7.67653 1.21444 7.32006C1.21355 7.33983 1.21355 7.35987 1.21355 7.3807C1.21355 9.68437 2.60008 11.6076 4.44008 12.0434C4.10231 12.1523 3.74693 12.2108 3.37996 12.2108C3.12089 12.2108 2.86895 12.1803 2.62393 12.1251C3.13583 14.0146 4.62067 15.3899 6.38109 15.4286C5.00437 16.7045 3.27026 17.4647 1.38611 17.4647C1.06172 17.4647 0.741563 17.4428 0.426758 17.3988C2.20657 18.7477 4.31991 19.5353 6.59155 19.5353Z" fill="white"/>
</svg>
