<svg width="22" height="20" viewBox="0 0 22 20" fill="none" xmlns="http://www.w3.org/2000/svg">
<path fill-rule="evenodd" clip-rule="evenodd" d="M17.4777 2.92461L17.4777 2.92466L17.491 2.92587C18.1688 2.98753 18.513 3.13639 18.7046 3.27143C18.8768 3.39275 19.068 3.60177 19.2463 4.07942C19.6585 5.1837 19.7909 7.07969 19.7909 10.4242C19.7909 13.7676 19.6589 15.6931 19.2445 16.8133C19.0641 17.301 18.8734 17.504 18.7137 17.615C18.5376 17.7374 18.2101 17.878 17.5446 17.9184L17.5446 17.9184L17.5356 17.9189C14.4136 18.1241 7.39084 18.1246 4.24931 17.9205C3.58544 17.8577 3.24647 17.7105 3.05682 17.5769C2.88464 17.4556 2.69342 17.2465 2.51513 16.7689C2.10293 15.6646 1.97052 13.7686 1.97052 10.4242C1.97052 7.07969 2.10293 5.1837 2.51513 4.07942C2.69342 3.60177 2.88464 3.39275 3.05682 3.27143C3.24847 3.13639 3.59261 2.98753 4.27041 2.92587L4.27042 2.92592L4.28374 2.92461C7.37518 2.61994 14.3863 2.61994 17.4777 2.92461ZM0.188477 10.4242C0.188477 16.9574 0.633987 19.381 4.10897 19.6972C7.31664 19.9079 14.4448 19.9079 17.6525 19.6972C21.1275 19.4864 21.573 16.9574 21.573 10.4242C21.573 3.89091 21.1275 1.46728 17.6525 1.15116C14.4448 0.835031 7.31664 0.835031 4.10897 1.15116C0.633987 1.46728 0.188477 3.89091 0.188477 10.4242ZM9.55255 13.8442C8.95858 14.1954 8.20801 13.7672 8.20801 13.0772V7.77124C8.20801 7.08121 8.95858 6.65306 9.55255 7.00428L14.0391 9.65726C14.6225 10.0022 14.6225 10.8463 14.0391 11.1912L9.55255 13.8442Z" fill="white"/>
</svg>
