<svg width="29" height="21" viewBox="0 0 29 21" fill="none" xmlns="http://www.w3.org/2000/svg">
<path d="M11.946 0.0344677C10.6767 0.180931 10.0203 0.311119 9.16864 0.582346C5.06769 1.87881 1.89433 5.24203 0.852816 9.38096C0.543617 10.6286 0.527344 10.8402 0.527344 13.5904C0.527344 16.0911 0.527344 16.1508 0.652108 16.601C0.907062 17.534 1.35187 18.3098 2.04622 19.0312C2.76768 19.7907 3.679 20.3168 4.70967 20.5718C5.40401 20.7399 6.61911 20.7454 7.29717 20.5718C10.0149 19.8883 11.8104 17.3605 11.5175 14.6319C11.4361 13.8888 11.2896 13.3734 10.9642 12.717C10.438 11.6376 9.55921 10.7696 8.44718 10.2218C7.55755 9.7878 7.08019 9.68473 5.97901 9.69016C5.16533 9.69558 5.04056 9.70643 4.59575 9.84204C4.32995 9.92341 3.97735 10.0482 3.82004 10.1187L3.53797 10.2489L3.57051 10.1024C3.679 9.66846 4.06415 8.65407 4.32452 8.13873C5.75118 5.29085 8.4526 3.35429 11.626 2.90405C11.9352 2.86065 12.3854 2.82268 12.6295 2.82268C13.1774 2.82268 13.5408 2.71419 13.8283 2.47009C14.1484 2.19886 14.3003 1.85169 14.3003 1.4123C14.2948 1.00546 14.2026 0.755932 13.9531 0.468431C13.6439 0.12126 13.4161 0.0344677 12.7326 0.0236187C12.4071 0.0181942 12.0491 0.0236187 11.946 0.0344677Z" fill="#141414"/>
<path d="M25.6699 0.0398884C25.2034 0.0724354 24.2812 0.229748 23.7225 0.36536C19.334 1.42857 15.8243 4.86231 14.658 9.23449C14.338 10.4387 14.2729 11.0626 14.2404 13.2107C14.2078 15.2178 14.2458 15.9284 14.4139 16.5739C14.9347 18.5484 16.4807 20.0673 18.4932 20.5718C19.1713 20.7454 20.3864 20.7399 21.0807 20.5718C22.1114 20.3168 23.0227 19.7907 23.7442 19.0312C24.4385 18.3098 24.8833 17.534 25.1383 16.601C25.2468 16.1942 25.263 16.0206 25.2576 15.1364C25.2576 14.2034 25.2468 14.1003 25.1111 13.6555C24.3354 11.1331 22.1114 9.54911 19.5184 9.67388C18.8458 9.701 18.1894 9.85289 17.6578 10.0916L17.3161 10.2489L17.3486 10.1024C17.4408 9.69558 17.7826 8.76256 18.0158 8.27977C19.2418 5.74651 21.5743 3.82622 24.2758 3.12645C24.9267 2.95829 25.8706 2.82268 26.4185 2.82268C26.9338 2.82268 27.1616 2.76301 27.4925 2.53518C28.0458 2.16631 28.2248 1.38518 27.9102 0.755928C27.742 0.430456 27.4112 0.14838 27.0911 0.0561619C26.9012 0.00734138 26.2286 -0.00350761 25.6699 0.0398884Z" fill="#141414"/>
</svg>
